<?xml version="1.0" encoding="iso-8859-1"?>
<!-- Generator: Adobe Illustrator 19.0.0, SVG Export Plug-In . SVG Version: 6.00 Build 0)  -->
<svg version="1.1" id="Layer_1" xmlns="http://www.w3.org/2000/svg" xmlns:xlink="http://www.w3.org/1999/xlink" x="0px" y="0px"
	 viewBox="0 0 512 512" style="enable-background:new 0 0 512 512;" xml:space="preserve">
<path style="fill:#DB2B42;" d="M112.208,205.088c1.408,5.088,3.088,10.096,4.976,14.896l4.512,10.208L256,478.384l134.496-248.56
	l4.256-9.664c1.824-4.56,3.584-9.808,5.04-15.072c3.584-12.944,5.408-26.368,5.408-39.888C405.2,82.928,338.272,16,256,16
	S106.8,82.928,106.8,165.2C106.8,178.72,108.624,192.144,112.208,205.088z M231.488,138.224l24.496-72.672l24.496,72.672h80.864
	l-65.424,45.84l24.688,73.264L256,212.032l-64.592,45.296l24.656-73.248l-65.408-45.856H231.488z"/>
<path d="M90.8,165.2c0,15.296,2.096,30.112,5.984,44.16c1.552,5.632,3.392,11.136,5.52,16.512l5.008,11.376L256,512l148.88-275.136
	l4.512-10.256c2.24-5.6,4.192-11.36,5.824-17.248c3.888-14.064,5.984-28.864,5.984-44.16C421.2,73.952,347.232,0,256,0
	S90.8,73.952,90.8,165.2z M256,16c82.272,0,149.2,66.928,149.2,149.2c0,13.52-1.824,26.944-5.408,39.888
	c-1.456,5.264-3.232,10.512-5.04,15.072l-4.256,9.664L256,478.384L121.696,230.208L117.184,220c-1.904-4.8-3.568-9.824-4.976-14.896
	c-3.584-12.944-5.408-26.368-5.408-39.888C106.8,82.928,173.728,16,256,16z"/>
<path d="M191.408,257.328L256,212.032l64.608,45.312L295.92,184.08l65.424-45.84H280.48l-24.496-72.672l-24.496,72.672h-80.832
	l65.408,45.84L191.408,257.328z M201.36,154.224h41.616l13.008-38.576l13.008,38.576h41.632l-33.664,23.6l12.944,38.416L256,192.496
	l-33.888,23.76l12.944-38.432L201.36,154.224z"/>
<polygon style="fill:#FFFFFF;" points="222.112,216.256 256,192.496 289.888,216.24 276.96,177.824 310.624,154.224 
	268.992,154.224 255.984,115.648 242.976,154.224 201.36,154.224 235.04,177.824 "/>
<g>
</g>
<g>
</g>
<g>
</g>
<g>
</g>
<g>
</g>
<g>
</g>
<g>
</g>
<g>
</g>
<g>
</g>
<g>
</g>
<g>
</g>
<g>
</g>
<g>
</g>
<g>
</g>
<g>
</g>
</svg>
