<?xml version="1.0" encoding="iso-8859-1"?>
<!-- Generator: Adobe Illustrator 19.0.0, SVG Export Plug-In . SVG Version: 6.00 Build 0)  -->
<svg version="1.1" id="Layer_1" xmlns="http://www.w3.org/2000/svg" xmlns:xlink="http://www.w3.org/1999/xlink" x="0px" y="0px"
	 viewBox="0 0 512 512" style="enable-background:new 0 0 512 512;" xml:space="preserve">
<g>
	<polygon style="fill:#DB2B42;" points="255.696,335.904 208.304,390.256 256,478.384 304.16,389.376 303.12,390.288 	"/>
	<path style="fill:#DB2B42;" d="M112.208,205.088c1.408,5.088,3.088,10.096,4.976,14.896l4.512,10.208l78.48,145.04l55.52-63.68
		l55.888,64.064l78.896-145.808l4.256-9.664c1.824-4.56,3.584-9.808,5.04-15.072c3.584-12.944,5.408-26.368,5.408-39.888
		C405.2,82.928,338.272,16,256,16S106.8,82.928,106.8,165.2C106.8,178.72,108.624,192.144,112.208,205.088z M256,90.608
		c40.368,0,73.088,32.72,73.088,73.088s-32.72,73.088-73.088,73.088s-73.088-32.72-73.088-73.088S215.632,90.608,256,90.608z"/>
</g>
<path d="M102.304,225.872l5.008,11.376L256,512l148.88-275.136l4.512-10.256c2.24-5.6,4.192-11.36,5.824-17.248
	c3.888-14.064,5.984-28.864,5.984-44.16C421.2,73.952,347.232,0,256,0S90.8,73.952,90.8,165.2c0,15.296,2.08,30.112,5.984,44.16
	C98.352,214.992,100.192,220.496,102.304,225.872z M256,478.384l-47.696-88.128l47.392-54.352l47.424,54.368l1.04-0.896L256,478.384
	z M256,16c82.272,0,149.2,66.928,149.2,149.2c0,13.536-1.824,26.944-5.408,39.888c-1.456,5.264-3.232,10.496-5.04,15.072
	l-4.256,9.664L311.6,375.632l-55.888-64.064l-55.52,63.68l-78.48-145.04L117.2,220c-1.904-4.8-3.568-9.808-4.976-14.896
	c-3.584-12.944-5.392-26.368-5.392-39.888C106.8,82.928,173.728,16,256,16z"/>
<path d="M256,236.784c40.368,0,73.088-32.72,73.088-73.088S296.368,90.608,256,90.608s-73.088,32.72-73.088,73.088
	S215.632,236.784,256,236.784z M256,106.608c31.472,0,57.088,25.616,57.088,57.088S287.472,220.784,256,220.784
	s-57.088-25.616-57.088-57.088S224.528,106.608,256,106.608z"/>
<circle style="fill:#FFFFFF;" cx="256" cy="163.696" r="57.088"/>
<g>
</g>
<g>
</g>
<g>
</g>
<g>
</g>
<g>
</g>
<g>
</g>
<g>
</g>
<g>
</g>
<g>
</g>
<g>
</g>
<g>
</g>
<g>
</g>
<g>
</g>
<g>
</g>
<g>
</g>
</svg>
